<svg width="24" height="24" viewBox="0 0 24 24" fill="none" xmlns="http://www.w3.org/2000/svg">
<path d="M15.2399 11.9999C15.2399 10.1999 13.7999 8.7599 11.9999 8.7599C10.1999 8.7599 8.7599 10.1999 8.7599 11.9999C8.7599 13.7999 10.1999 15.2399 11.9999 15.2399C13.7999 15.2399 15.2399 13.7999 15.2399 11.9999ZM16.9199 11.9999C16.9199 14.7599 14.7599 16.9199 11.9999 16.9199C9.2399 16.9199 7.0799 14.7599 7.0799 11.9999C7.0799 9.2399 9.2399 7.0799 11.9999 7.0799C14.7599 7.0799 16.9199 9.2399 16.9199 11.9999ZM18.2399 6.8399C18.2399 7.5599 17.7599 8.0399 17.0399 8.0399C16.3199 8.0399 15.8399 7.5599 15.8399 6.8399C15.8399 6.1199 16.3199 5.6399 17.0399 5.6399C17.7599 5.6399 18.2399 6.2399 18.2399 6.8399ZM11.9999 4.0799C10.5599 4.0799 7.5599 3.9599 6.3599 4.4399C5.5199 4.7999 4.7999 5.5199 4.5599 6.3599C4.0799 7.5599 4.1999 10.5599 4.1999 11.9999C4.1999 13.4399 4.0799 16.4399 4.5599 17.6399C4.7999 18.4799 5.5199 19.1999 6.3599 19.4399C7.5599 19.9199 10.6799 19.7999 11.9999 19.7999C13.3199 19.7999 16.4399 19.9199 17.6399 19.4399C18.4799 19.0799 19.0799 18.4799 19.4399 17.6399C19.9199 16.3199 19.7999 13.3199 19.7999 11.9999C19.7999 10.6799 19.9199 7.5599 19.4399 6.3599C19.1999 5.5199 18.4799 4.7999 17.6399 4.5599C16.4399 3.9599 13.4399 4.0799 11.9999 4.0799ZM21.5999 11.9999V15.9599C21.5999 17.3999 21.1199 18.8399 20.0399 20.0399C18.9599 21.1199 17.5199 21.5999 15.9599 21.5999H8.0399C6.5999 21.5999 5.1599 21.1199 3.9599 20.0399C2.9999 18.9599 2.3999 17.5199 2.3999 15.9599V11.9999V8.0399C2.3999 6.4799 2.9999 5.0399 3.9599 3.9599C5.1599 2.9999 6.5999 2.3999 8.0399 2.3999H15.9599C17.3999 2.3999 18.8399 2.8799 20.0399 3.9599C20.9999 5.0399 21.5999 6.4799 21.5999 8.0399V11.9999Z" fill="white"/>
</svg>
