<svg width="24" height="24" viewBox="0 0 24 24" fill="none" xmlns="http://www.w3.org/2000/svg">
<path d="M9.492 3.67957L8.90625 3.75007C8.90625 3.75007 6.27825 4.03732 4.359 5.57857H4.3365L4.3125 5.60107C3.882 5.99707 3.6945 6.48382 3.39825 7.19557C3.04904 8.05189 2.75175 8.92848 2.508 9.82057C1.9515 11.8328 1.5 14.2703 1.5 16.5001V16.6876L1.59375 16.8751C2.28825 18.0938 3.52125 18.8701 4.66425 19.4063C5.8065 19.9426 6.79425 20.2268 7.47675 20.2501L7.92225 20.2733L8.15625 19.8751L8.97675 18.4216C9.84675 18.6181 10.8488 18.7501 12 18.7501C13.1512 18.7501 14.1532 18.6181 15.0233 18.4216L15.8438 19.8751L16.0785 20.2733L16.5233 20.2501C17.2058 20.2268 18.1935 19.9426 19.3358 19.4063C20.4788 18.8701 21.7118 18.0938 22.4062 16.8751L22.5 16.6876V16.5001C22.5 14.2703 22.0485 11.8328 21.492 9.82057C21.2483 8.92848 20.951 8.05189 20.6017 7.19557C20.3055 6.48307 20.118 5.99707 19.6875 5.60182L19.6642 5.57782H19.6403C17.7225 4.03732 15.0938 3.75007 15.0938 3.75007L14.508 3.67957L14.2965 4.21882C14.2965 4.21882 14.0798 4.76632 13.9455 5.39107C13.3007 5.3021 12.6509 5.25501 12 5.25007C11.5988 5.25007 10.905 5.27632 10.0545 5.39107C9.9195 4.76632 9.70275 4.21882 9.70275 4.21882L9.492 3.67957ZM8.46075 5.39107C8.493 5.49607 8.52525 5.58682 8.5545 5.67232C7.58475 5.91232 6.5505 6.27832 5.60175 6.86707L6.39825 8.13307C8.34375 6.92557 11.1383 6.75007 12 6.75007C12.861 6.75007 15.6562 6.92557 17.6017 8.13307L18.3983 6.86707C17.4495 6.27832 16.4152 5.91232 15.4455 5.67157C15.4747 5.58682 15.507 5.49607 15.5392 5.39032C16.239 5.53132 17.5755 5.85382 18.6795 6.72682C18.6735 6.72982 18.9608 7.16332 19.2188 7.78132C19.4827 8.41732 19.7752 9.26407 20.0392 10.2188C20.5462 12.0496 20.9445 14.2793 20.9767 16.2421C20.5042 16.9628 19.629 17.6131 18.7028 18.0473C18.1219 18.3218 17.5073 18.5185 16.875 18.6323L16.5 18.0001C16.7227 17.9176 16.9425 17.8276 17.133 17.7421C18.2873 17.2351 18.9142 16.6876 18.9142 16.6876L17.9295 15.5626C17.9295 15.5626 17.508 15.9496 16.5233 16.3831C15.54 16.8166 14.0363 17.2501 12 17.2501C9.96375 17.2501 8.46075 16.8166 7.47675 16.3831C6.492 15.9496 6.0705 15.5626 6.0705 15.5626L5.08575 16.6876C5.08575 16.6876 5.71275 17.2351 6.867 17.7421C7.0575 17.8276 7.27725 17.9183 7.5 18.0001L7.125 18.6331C6.49236 18.5188 5.87755 18.3216 5.2965 18.0466C4.371 17.6131 3.495 16.9628 3.024 16.2421C3.0555 14.2793 3.45375 12.0496 3.9615 10.2188C4.18586 9.39068 4.4596 8.57673 4.78125 7.78132C5.03925 7.16332 5.3265 6.72982 5.3205 6.72682C6.4245 5.85382 7.761 5.53132 8.46075 5.39107ZM9.375 10.5001C8.79525 10.5001 8.28225 10.8308 7.96875 11.2501C7.65525 11.6693 7.5 12.1846 7.5 12.7501C7.5 13.3156 7.65525 13.8308 7.96875 14.2501C8.28225 14.6693 8.79525 15.0001 9.375 15.0001C9.95475 15.0001 10.4677 14.6693 10.7812 14.2501C11.0948 13.8308 11.25 13.3156 11.25 12.7501C11.25 12.1846 11.0948 11.6693 10.7812 11.2501C10.4677 10.8308 9.95475 10.5001 9.375 10.5001ZM14.625 10.5001C14.0452 10.5001 13.5323 10.8308 13.2188 11.2501C12.9052 11.6693 12.75 12.1846 12.75 12.7501C12.75 13.3156 12.9052 13.8308 13.2188 14.2501C13.5323 14.6693 14.0452 15.0001 14.625 15.0001C15.2048 15.0001 15.7177 14.6693 16.0312 14.2501C16.3448 13.8308 16.5 13.3156 16.5 12.7501C16.5 12.1846 16.3448 11.6693 16.0312 11.2501C15.7177 10.8308 15.2048 10.5001 14.625 10.5001ZM9.375 12.0001C9.41625 12.0001 9.46875 12.0151 9.5625 12.1411C9.65625 12.2663 9.75 12.4861 9.75 12.7501C9.75 13.0141 9.65625 13.2338 9.5625 13.3598C9.46875 13.4851 9.41625 13.5001 9.375 13.5001C9.33375 13.5001 9.28125 13.4851 9.1875 13.3591C9.06347 13.1804 8.99796 12.9676 9 12.7501C9 12.4861 9.09375 12.2663 9.1875 12.1403C9.28125 12.0151 9.33375 12.0001 9.375 12.0001ZM14.625 12.0001C14.6663 12.0001 14.7188 12.0151 14.8125 12.1411C14.9062 12.2663 15 12.4861 15 12.7501C15 13.0141 14.9062 13.2338 14.8125 13.3598C14.7188 13.4851 14.6663 13.5001 14.625 13.5001C14.5837 13.5001 14.5312 13.4851 14.4375 13.3591C14.3135 13.1804 14.248 12.9676 14.25 12.7501C14.25 12.4861 14.3438 12.2663 14.4375 12.1403C14.5312 12.0151 14.5837 12.0001 14.625 12.0001Z" fill="white"/>
</svg>
