<svg width="553" height="341" viewBox="0 0 553 341" fill="none" xmlns="http://www.w3.org/2000/svg">
<g clip-path="url(#clip0)">
<path d="M552.997 213.249L192.858 -0.000854492L182.027 18.2641L542.166 231.514L552.997 213.249Z" fill="#F2F2F2"/>
<path d="M474.722 231.128L114.583 17.8777L103.752 36.1426L463.891 249.393L474.722 231.128Z" fill="#F2F2F2"/>
<path d="M405.392 250.683L45.2539 37.4324L34.423 55.6973L394.561 268.948L405.392 250.683Z" fill="#F2F2F2"/>
<path d="M318.42 249.98C380.693 249.98 431.175 199.534 431.175 137.306C431.175 75.0779 380.693 24.6321 318.42 24.6321C256.147 24.6321 205.665 75.0779 205.665 137.306C205.665 199.534 256.147 249.98 318.42 249.98Z" fill="#2B303F"/>
<path opacity="0.3" d="M318.42 157.881C314.444 157.881 310.558 156.703 307.253 154.496C303.947 152.289 301.371 149.152 299.85 145.482C298.329 141.812 297.93 137.774 298.706 133.877C299.482 129.981 301.396 126.402 304.207 123.593C307.018 120.784 310.599 118.872 314.498 118.097C318.397 117.322 322.439 117.719 326.112 119.239C329.784 120.76 332.923 123.334 335.132 126.637C337.341 129.94 338.52 133.823 338.52 137.796C338.513 143.121 336.394 148.226 332.626 151.992C328.858 155.757 323.749 157.875 318.42 157.881ZM318.42 118.69C314.638 118.69 310.942 119.811 307.798 121.91C304.653 124.01 302.203 126.993 300.756 130.485C299.309 133.976 298.93 137.817 299.668 141.523C300.405 145.229 302.226 148.634 304.9 151.306C307.574 153.978 310.981 155.797 314.69 156.534C318.398 157.272 322.243 156.893 325.736 155.447C329.23 154.001 332.216 151.552 334.317 148.41C336.418 145.269 337.539 141.575 337.539 137.796C337.533 132.731 335.517 127.874 331.933 124.293C328.348 120.711 323.489 118.696 318.42 118.69Z" fill="#653AB9"/>
<path opacity="0.3" d="M318.42 176.007C310.857 176.007 303.464 173.766 297.176 169.567C290.887 165.369 285.986 159.401 283.092 152.419C280.198 145.436 279.44 137.753 280.916 130.341C282.391 122.929 286.033 116.12 291.381 110.777C296.729 105.433 303.542 101.793 310.96 100.319C318.377 98.8446 326.066 99.6013 333.053 102.493C340.04 105.386 346.012 110.283 350.214 116.567C354.416 122.851 356.659 130.238 356.659 137.796C356.647 147.927 352.615 157.639 345.446 164.803C338.277 171.966 328.558 175.996 318.42 176.007ZM318.42 100.565C311.051 100.565 303.847 102.748 297.72 106.839C291.593 110.93 286.818 116.745 283.998 123.548C281.178 130.351 280.44 137.837 281.878 145.059C283.315 152.282 286.864 158.916 292.074 164.122C297.285 169.329 303.924 172.875 311.151 174.312C318.379 175.748 325.87 175.011 332.678 172.193C339.486 169.375 345.305 164.603 349.399 158.481C353.493 152.358 355.678 145.16 355.678 137.796C355.667 127.925 351.738 118.461 344.753 111.482C337.768 104.502 328.298 100.576 318.42 100.565Z" fill="#653AB9"/>
<path opacity="0.3" d="M318.42 191.683C307.754 191.683 297.328 188.523 288.46 182.602C279.592 176.68 272.68 168.264 268.598 158.418C264.517 148.571 263.449 137.736 265.53 127.283C267.61 116.83 272.746 107.228 280.288 99.6916C287.83 92.1553 297.439 87.023 307.899 84.9438C318.36 82.8645 329.203 83.9317 339.057 88.0103C348.91 92.0889 357.332 98.9958 363.258 107.858C369.183 116.719 372.346 127.138 372.346 137.796C372.33 152.083 366.643 165.78 356.534 175.882C346.424 185.985 332.717 191.667 318.42 191.683ZM318.42 84.8881C307.948 84.8881 297.712 87.9911 289.005 93.8047C280.298 99.6183 273.512 107.881 269.504 117.549C265.497 127.217 264.448 137.855 266.491 148.118C268.534 158.381 273.577 167.808 280.981 175.207C288.386 182.607 297.82 187.646 308.091 189.687C318.361 191.728 329.007 190.681 338.681 186.676C348.356 182.672 356.625 175.891 362.443 167.19C368.26 158.489 371.366 148.26 371.366 137.796C371.35 123.769 365.766 110.321 355.841 100.402C345.915 90.4833 332.457 84.904 318.42 84.8881V84.8881Z" fill="#653AB9"/>
<path opacity="0.3" d="M318.42 212.259C277.331 212.259 243.903 178.855 243.903 137.796C243.903 96.7371 277.331 63.3331 318.42 63.3331C359.508 63.3331 392.936 96.7371 392.936 137.796C392.936 178.855 359.508 212.259 318.42 212.259ZM318.42 64.3129C277.872 64.3129 244.884 97.2772 244.884 137.796C244.884 178.314 277.872 211.279 318.42 211.279C358.967 211.279 391.956 178.314 391.956 137.796C391.956 97.2772 358.967 64.3129 318.42 64.3129Z" fill="#653AB9"/>
<path opacity="0.3" d="M318.42 229.405C267.87 229.405 226.745 188.309 226.745 137.796C226.745 87.2825 267.87 46.187 318.42 46.187C368.969 46.187 410.094 87.2825 410.094 137.796C410.094 188.309 368.969 229.405 318.42 229.405ZM318.42 47.1668C268.411 47.1668 227.725 87.8228 227.725 137.796C227.725 187.769 268.411 228.425 318.42 228.425C368.429 228.425 409.114 187.769 409.114 137.796C409.114 87.8228 368.429 47.1668 318.42 47.1668Z" fill="#653AB9"/>
<path opacity="0.3" d="M318.42 146.614C323.564 146.614 327.734 142.447 327.734 137.306C327.734 132.165 323.564 127.998 318.42 127.998C313.275 127.998 309.105 132.165 309.105 137.306C309.105 142.447 313.275 146.614 318.42 146.614Z" fill="#653AB9"/>
<path opacity="0.3" d="M342.441 173.558C347.586 173.558 351.756 169.39 351.756 164.25C351.756 159.109 347.586 154.942 342.441 154.942C337.297 154.942 333.127 159.109 333.127 164.25C333.127 169.39 337.297 173.558 342.441 173.558Z" fill="#653AB9"/>
<path opacity="0.3" d="M277.24 169.639C282.384 169.639 286.554 165.471 286.554 160.331C286.554 155.19 282.384 151.023 277.24 151.023C272.095 151.023 267.925 155.19 267.925 160.331C267.925 165.471 272.095 169.639 277.24 169.639Z" fill="#653AB9"/>
<path d="M318.42 141.715C320.856 141.715 322.832 139.741 322.832 137.306C322.832 134.871 320.856 132.897 318.42 132.897C315.983 132.897 314.008 134.871 314.008 137.306C314.008 139.741 315.983 141.715 318.42 141.715Z" fill="#2B303F"/>
<path d="M277.24 164.74C279.676 164.74 281.652 162.766 281.652 160.331C281.652 157.896 279.676 155.922 277.24 155.922C274.803 155.922 272.827 157.896 272.827 160.331C272.827 162.766 274.803 164.74 277.24 164.74Z" fill="#2B303F"/>
<path d="M342.441 169.149C344.878 169.149 346.854 167.175 346.854 164.74C346.854 162.305 344.878 160.331 342.441 160.331C340.005 160.331 338.029 162.305 338.029 164.74C338.029 167.175 340.005 169.149 342.441 169.149Z" fill="#2B303F"/>
<path d="M524.32 92.2364C526.757 92.2364 528.732 90.2625 528.732 87.8274C528.732 85.3924 526.757 83.4185 524.32 83.4185C521.884 83.4185 519.908 85.3924 519.908 87.8274C519.908 90.2625 521.884 92.2364 524.32 92.2364Z" fill="#653AB9"/>
<path d="M318.665 137.551H317.684V87.0927H512.31V88.0726H318.665V137.551Z" fill="#2B303F"/>
<path d="M524.32 100.564C521.8 100.564 519.335 99.8174 517.239 98.4179C515.143 97.0183 513.509 95.0291 512.544 92.7017C511.58 90.3743 511.327 87.8133 511.819 85.3425C512.311 82.8718 513.525 80.6022 515.307 78.8209C517.09 77.0396 519.361 75.8265 521.834 75.3351C524.306 74.8436 526.869 75.0959 529.198 76.0599C531.527 77.0239 533.518 78.6565 534.919 80.7511C536.319 82.8457 537.067 85.3082 537.067 87.8274C537.063 91.2043 535.719 94.4418 533.329 96.8297C530.94 99.2175 527.7 100.561 524.32 100.564ZM524.32 76.0701C521.993 76.0701 519.719 76.7597 517.784 78.0516C515.849 79.3435 514.341 81.1797 513.45 83.3281C512.56 85.4764 512.327 87.8404 512.781 90.1211C513.235 92.4018 514.355 94.4967 516.001 96.141C517.646 97.7853 519.743 98.9051 522.025 99.3588C524.307 99.8124 526.673 99.5796 528.823 98.6897C530.973 97.7998 532.81 96.2929 534.103 94.3594C535.396 92.4259 536.086 90.1528 536.086 87.8274C536.083 84.7103 534.842 81.7218 532.636 79.5177C530.43 77.3135 527.44 76.0737 524.32 76.0701V76.0701Z" fill="#2B303F"/>
<path d="M494.906 219.117C497.343 219.117 499.318 217.143 499.318 214.708C499.318 212.273 497.343 210.299 494.906 210.299C492.469 210.299 490.494 212.273 490.494 214.708C490.494 217.143 492.469 219.117 494.906 219.117Z" fill="#653AB9"/>
<path d="M494.906 227.445C492.385 227.445 489.921 226.698 487.824 225.299C485.728 223.899 484.095 221.91 483.13 219.582C482.165 217.255 481.913 214.694 482.405 212.223C482.896 209.753 484.11 207.483 485.893 205.702C487.676 203.92 489.947 202.707 492.419 202.216C494.892 201.724 497.455 201.977 499.784 202.941C502.113 203.905 504.103 205.537 505.504 207.632C506.905 209.726 507.652 212.189 507.652 214.708C507.648 218.085 506.304 221.323 503.915 223.71C501.525 226.098 498.285 227.441 494.906 227.445ZM494.906 202.951C492.579 202.951 490.304 203.64 488.369 204.932C486.434 206.224 484.926 208.06 484.036 210.209C483.145 212.357 482.912 214.721 483.366 217.002C483.82 219.283 484.941 221.377 486.586 223.022C488.232 224.666 490.328 225.786 492.611 226.239C494.893 226.693 497.259 226.46 499.408 225.57C501.558 224.681 503.396 223.174 504.689 221.24C505.982 219.307 506.672 217.033 506.672 214.708C506.668 211.591 505.427 208.603 503.222 206.398C501.016 204.194 498.025 202.954 494.906 202.951Z" fill="#2B303F"/>
<path d="M140.463 112.812C142.899 112.812 144.875 110.838 144.875 108.403C144.875 105.968 142.899 103.994 140.463 103.994C138.026 103.994 136.051 105.968 136.051 108.403C136.051 110.838 138.026 112.812 140.463 112.812Z" fill="#653AB9"/>
<path d="M140.463 121.14C137.942 121.14 135.477 120.393 133.381 118.993C131.285 117.594 129.652 115.604 128.687 113.277C127.722 110.95 127.47 108.389 127.961 105.918C128.453 103.447 129.667 101.178 131.45 99.3963C133.232 97.6149 135.504 96.4019 137.976 95.9104C140.449 95.4189 143.011 95.6712 145.341 96.6352C147.67 97.5992 149.66 99.2318 151.061 101.326C152.461 103.421 153.209 105.884 153.209 108.403C153.205 111.78 151.861 115.017 149.472 117.405C147.082 119.793 143.842 121.136 140.463 121.14ZM140.463 96.6454C138.136 96.6454 135.861 97.335 133.926 98.6269C131.991 99.9188 130.483 101.755 129.593 103.903C128.702 106.052 128.469 108.416 128.923 110.696C129.377 112.977 130.498 115.072 132.143 116.716C133.789 118.361 135.885 119.48 138.167 119.934C140.45 120.388 142.815 120.155 144.965 119.265C147.115 118.375 148.953 116.868 150.246 114.935C151.539 113.001 152.229 110.728 152.229 108.403C152.225 105.286 150.984 102.297 148.778 100.093C146.573 97.8889 143.582 96.649 140.463 96.6455V96.6454Z" fill="#2B303F"/>
<path d="M277.73 160.331H276.749V110.844L152.711 108.892L152.726 107.913L277.73 109.88V160.331Z" fill="#2B303F"/>
<path d="M482.65 215.198H341.951V164.74H342.932V214.218H482.65V215.198Z" fill="#2B303F"/>
<path d="M551.284 110.852H497.357V114.281H551.284V110.852Z" fill="#2B303F"/>
<path d="M551.284 120.65H497.357V124.079H551.284V120.65Z" fill="#2B303F"/>
<path d="M551.284 130.448H497.357V133.877H551.284V130.448Z" fill="#2B303F"/>
<path d="M521.869 237.733H467.943V241.162H521.869V237.733Z" fill="#2B303F"/>
<path d="M521.869 247.531H467.943V250.96H521.869V247.531Z" fill="#2B303F"/>
<path d="M521.869 257.328H467.943V260.757H521.869V257.328Z" fill="#2B303F"/>
<path d="M167.426 131.917H113.5V135.346H167.426V131.917Z" fill="#2B303F"/>
<path d="M167.426 141.715H113.5V145.144H167.426V141.715Z" fill="#2B303F"/>
<path d="M167.426 151.513H113.5V154.942H167.426V151.513Z" fill="#2B303F"/>
<path d="M322.832 324.936C382.127 324.936 430.194 323.401 430.194 321.507C430.194 319.613 382.127 318.078 322.832 318.078C263.537 318.078 215.469 319.613 215.469 321.507C215.469 323.401 263.537 324.936 322.832 324.936Z" fill="#F2F2F2"/>
<path d="M362.304 339.883H0V341H362.304V339.883Z" fill="#2B303F"/>
<path d="M41.3694 100.113C41.3694 100.113 46.5012 114.709 43.3432 116.954C40.1851 119.2 54.0016 137.538 54.0016 137.538L70.5815 133.047L61.5021 117.703C61.5021 117.703 60.3178 102.359 60.3178 100.113C60.3178 97.8676 41.3694 100.113 41.3694 100.113Z" fill="#FFB8B8"/>
<path opacity="0.1" d="M41.3694 100.113C41.3694 100.113 46.5012 114.709 43.3432 116.954C40.1851 119.2 54.0016 137.538 54.0016 137.538L70.5815 133.047L61.5021 117.703C61.5021 117.703 60.3178 102.359 60.3178 100.113C60.3178 97.8676 41.3694 100.113 41.3694 100.113Z" fill="black"/>
<path d="M32.7554 204.153C32.7554 204.153 31.2573 222.865 32.7554 232.596C34.2535 242.326 36.5005 269.272 36.5005 269.272C36.5005 269.272 36.5005 320.169 44.7399 320.917C52.9792 321.666 58.9714 322.414 59.7204 319.42C60.4694 316.426 55.9753 314.929 58.2224 313.432C60.4694 311.935 61.2185 306.696 58.2224 300.708C55.2263 294.72 58.2224 234.093 58.2224 234.093L72.4539 272.266C72.4539 272.266 73.9519 303.702 75.45 308.193C76.9481 312.684 73.9519 320.917 79.1951 321.666C84.4383 322.414 90.4306 317.923 93.4267 316.426C96.4228 314.929 88.9325 314.929 90.4306 314.181C91.9286 313.432 96.4228 311.187 94.9247 310.438C93.4267 309.69 91.9286 273.763 91.9286 273.763C91.9286 273.763 87.809 197.042 82.5657 194.048C77.3225 191.055 73.9519 196.211 73.9519 196.211L32.7554 204.153Z" fill="#2B303F"/>
<path d="M46.2378 317.923V323.911C46.2378 323.911 39.4966 340.188 46.2378 340.188C52.9791 340.188 58.2223 341.875 58.2223 339.63V319.42L46.2378 317.923Z" fill="#B07473"/>
<path d="M90.4305 317.913V323.901C90.4305 323.901 97.1717 340.178 90.4305 340.178C83.6892 340.178 78.446 341.864 78.446 339.619V319.41L90.4305 317.913Z" fill="#B07473"/>
<path d="M51.8555 110.966C59.3017 110.966 65.3381 104.934 65.3381 97.4934C65.3381 90.0526 59.3017 84.0206 51.8555 84.0206C44.4094 84.0206 38.373 90.0526 38.373 97.4934C38.373 104.934 44.4094 110.966 51.8555 110.966Z" fill="#FFB8B8"/>
<path d="M47.7361 122.568C47.7361 122.568 51.4812 133.795 57.4734 131.55L63.4657 129.304L73.9521 201.159C73.9521 201.159 65.7128 213.135 53.7283 205.65C41.7439 198.165 47.7361 122.568 47.7361 122.568Z" fill="#D0CDE1"/>
<path d="M58.2224 120.322L61.593 113.212C61.593 113.212 81.4423 122.568 84.4384 125.562C87.4345 128.556 87.4345 133.047 87.4345 133.047L82.1913 151.759C82.1913 151.759 83.6894 192.926 83.6894 194.423C83.6894 195.92 88.9325 204.153 85.1874 201.159C81.4423 198.165 80.6932 195.171 77.6971 199.662C74.701 204.153 67.9598 209.392 67.9598 209.392L58.2224 120.322Z" fill="#653AB9"/>
<path d="M84.4384 174.214L82.1913 195.171C82.1913 195.171 68.7088 207.147 71.7049 207.895C74.7011 208.644 76.1991 205.65 76.1991 205.65C76.1991 205.65 81.4423 210.889 84.4384 207.895C87.4345 204.902 94.9248 176.459 94.9248 176.459L84.4384 174.214Z" fill="#FFB8B8"/>
<path d="M52.1429 78.4525C49.154 78.3458 45.9554 78.293 43.4353 79.9025C42.2758 80.7102 41.2589 81.7051 40.426 82.8462C37.9716 85.9468 35.8509 89.848 36.7626 93.6949L37.8215 93.2822C37.8214 94.3091 37.593 95.3231 37.1527 96.2509C37.3018 95.8176 37.8011 96.518 37.6674 96.9563L36.501 100.78C36.983 100.632 37.4908 100.586 37.9915 100.646C38.4923 100.707 38.9748 100.871 39.4079 101.129C39.841 101.387 40.215 101.734 40.5057 102.146C40.7965 102.557 40.9974 103.026 41.0956 103.52C41.229 99.0784 41.69 93.9853 45.2956 91.3846C47.1139 90.073 49.4151 89.6726 51.6292 89.3171C53.6718 88.9892 55.813 88.6763 57.7694 89.3483C59.7258 90.0202 61.3919 92.0196 60.9483 94.0388C61.8504 93.7283 62.8593 94.3565 63.3051 95.1995C63.683 96.0789 63.8483 97.0349 63.7878 97.9901C64.7493 98.6692 65.8437 97.3207 66.2356 96.2112C67.1554 93.6067 67.9731 90.8343 67.4775 88.1172C66.982 85.4 64.7662 82.8033 62.0023 82.7941C62.3378 82.4259 62.5168 81.9417 62.5015 81.444L60.2234 81.2516C60.8017 81.1698 61.3336 80.8896 61.7279 80.459C60.8133 81.4646 53.622 78.5054 52.1429 78.4525Z" fill="#2B303F"/>
<path d="M51.4812 118.077C51.4812 118.077 45.3837 112.106 43.1892 112.472C40.9948 112.837 37.9987 118.077 37.9987 118.077C37.9987 118.077 20.022 124.065 20.7711 130.053C21.5201 136.041 29.7594 165.232 29.7594 165.232C29.7594 165.232 36.5007 200.411 30.5084 204.153C24.5162 207.896 58.9715 217.626 59.7205 213.135C60.4696 208.644 61.9676 163.735 59.7205 156.998C57.4735 150.262 51.4812 118.077 51.4812 118.077Z" fill="#653AB9"/>
<path d="M27.5122 180.95L37.9986 185.441C37.9986 185.441 58.2224 188.435 58.2224 180.201C58.2224 171.968 37.9986 176.459 37.9986 176.459L31.2569 174.305L27.5122 180.95Z" fill="#FFB8B8"/>
<path d="M77.697 130.053H86.9588C86.9588 130.053 93.4266 158.495 94.1756 161.489C94.9247 164.483 96.4227 178.705 95.6737 178.705C94.9247 178.705 79.9441 175.711 79.9441 177.956L77.697 130.053Z" fill="#653AB9"/>
<path d="M29.7594 125.562L20.7711 127.807L14.0299 167.477C14.0299 167.477 11.7828 177.956 15.5279 178.704C19.2731 179.453 29.7595 185.441 29.7595 185.441C29.7595 185.441 31.2575 174.214 34.2536 174.214L26.7634 168.226L31.2575 142.029L29.7594 125.562Z" fill="#653AB9"/>
<path d="M284.588 318.093H270.051V303.567H284.588V318.093ZM271.169 316.976H283.469V304.684H271.169V316.976Z" fill="#2B303F"/>
<path d="M293.533 318.093C296.621 318.093 299.124 315.591 299.124 312.506C299.124 309.42 296.621 306.919 293.533 306.919C290.445 306.919 287.942 309.42 287.942 312.506C287.942 315.591 290.445 318.093 293.533 318.093Z" fill="#653AB9"/>
</g>
<defs>
<clipPath id="clip0">
<rect width="553" height="341" fill="white"/>
</clipPath>
</defs>
</svg>
